# Blender 4.0.2
# www.blender.org
mtllib gcon.mtl
o Plane
v 0.007666 0.132728 0.050350
v 0.007666 0.154150 0.050761
v 0.007666 0.125538 0.003661
v 0.007666 0.153944 -0.000859
v 0.007666 0.129235 -0.003940
v 0.007666 0.154766 -0.011335
v 0.007666 0.128619 -0.024688
v 0.007666 0.150452 -0.032084
v 0.009492 0.113839 -0.026040
v 0.007476 0.124363 -0.047491
v 0.009492 0.092053 -0.032905
v 0.009492 0.101971 -0.056119
v 0.009492 0.080138 -0.031878
v 0.009492 0.079374 -0.059816
v 0.007666 0.120100 -0.025780
v 0.007666 0.113482 0.004632
v 0.007666 0.119743 -0.001172
v 0.007666 0.127387 0.015667
v 0.007666 0.153997 0.012416
v 0.007666 0.119888 0.049066
v 0.007666 0.116117 0.015097
v -0.007741 0.132728 0.050350
v -0.007741 0.154150 0.050761
v -0.007741 0.125538 0.003661
v -0.007741 0.153944 -0.000859
v -0.007741 0.129235 -0.003940
v -0.007741 0.154766 -0.011335
v -0.007741 0.128619 -0.024688
v -0.007741 0.150452 -0.032084
v -0.009567 0.113839 -0.026040
v -0.007551 0.124363 -0.047491
v -0.009567 0.092053 -0.032905
v -0.009567 0.101971 -0.056119
v -0.009567 0.080138 -0.031878
v -0.009567 0.079374 -0.059816
v -0.007741 0.120100 -0.025780
v -0.007741 0.113482 0.004632
v -0.007741 0.119743 -0.001172
v -0.007741 0.127387 0.015667
v -0.007741 0.153997 0.012416
v -0.007741 0.119888 0.049066
v -0.007741 0.116117 0.015097
v -0.003580 0.151272 -0.026011
v -0.003580 0.156771 -0.027923
v -0.003580 0.150718 -0.028450
v -0.003580 0.156671 -0.029741
v -0.003580 0.151606 -0.024339
v -0.003580 0.154525 -0.026012
v -0.003580 0.153565 -0.013828
v -0.003580 0.154764 -0.014833
v 0.003672 0.151272 -0.026011
v 0.003672 0.156771 -0.027923
v 0.003672 0.150718 -0.028450
v 0.003672 0.156671 -0.029741
v 0.003672 0.151606 -0.024339
v 0.003672 0.154525 -0.026012
v 0.003672 0.153565 -0.013828
v 0.003672 0.154764 -0.014833
v 0.004050 0.132656 0.054098
v 0.004050 0.154078 0.054508
v -0.004125 0.132656 0.054098
v -0.004125 0.154078 0.054508
vn 1.0000 -0.0000 -0.0000
vn 0.9935 0.1055 -0.0416
vn 1.0000 -0.0019 -0.0091
vn 0.9600 0.2798 0.0041
vn -1.0000 -0.0000 -0.0000
vn -0.6417 0.1560 0.7509
vn -0.9600 0.2798 0.0041
vn -0.0000 -0.9996 0.0273
vn -0.0000 -0.0995 0.9950
vn -0.0000 0.9791 -0.2036
vn -0.0000 -0.2800 -0.9600
vn -0.0000 -0.9998 -0.0192
vn -0.0000 0.1615 -0.9869
vn -0.0000 -0.9996 0.0297
vn -0.0000 0.0803 0.9968
vn -0.0000 1.0000 -0.0040
vn -0.0000 0.0859 0.9963
vn -0.0000 -0.9883 0.1522
vn -0.0000 0.5085 -0.8611
vn -0.0000 -0.1271 0.9919
vn -0.0000 0.9969 0.0782
vn -0.0000 0.3595 -0.9331
vn -0.0000 -0.9939 0.1103
vn -0.0000 -0.9999 -0.0116
vn -0.0000 -0.3005 0.9538
vn -0.0000 0.0505 -0.9987
vn -0.0000 0.9999 0.0145
vn -0.0000 0.9806 -0.1959
vn -0.0000 0.9752 -0.2215
vn -0.0000 0.2119 0.9773
vn -0.0000 0.9831 -0.1832
vn -0.0000 -0.6480 -0.7616
vn -0.0000 -0.9985 0.0549
vn -0.0000 -0.9998 0.0214
vn -0.0000 -0.6419 -0.7668
vn -0.0000 -0.0191 0.9998
vn 0.7197 -0.0133 0.6941
vn -0.7196 -0.0133 0.6942
vn -0.0000 0.9998 0.0192
vn 0.9595 0.2779 0.0462
vn 0.9966 0.0556 0.0600
vn -0.9935 0.1055 -0.0416
vn -0.9965 0.0373 -0.0754
vn -0.9966 0.0556 0.0600
vn 0.7196 -0.0133 0.6942
vn -0.7197 -0.0133 0.6941
vt 0.553897 0.601824
vt 0.637452 0.905320
vt 0.666323 0.623048
vt 0.509935 0.659440
vt 0.531129 0.938621
vt 0.307765 0.647904
vt 0.441180 0.944485
vt 0.304371 0.472880
vt 0.071936 0.333076
vt 0.170839 0.584765
vt 0.251248 0.219223
vt 0.055827 0.079029
vt 0.311515 0.488536
vt 0.273027 0.903886
vt 0.524183 0.499611
vt 0.898274 0.693283
vt 0.963340 0.928487
vt 0.952124 0.545896
vt 0.259573 0.096724
vt 0.571846 0.464325
vt 0.675558 0.516875
vt 0.302478 0.906943
vt 0.306744 0.976425
vt 0.322241 0.913297
vt 0.322232 0.950649
vt 0.412836 0.944468
vt 0.335793 0.917136
vt 0.292014 0.975275
vt 0.420977 0.930699
s 0
usemtl Material.001
f 3/1/1 19/2/1 18/3/1
f 5/4/1 4/5/1 3/1/1
f 7/6/1 6/7/1 5/4/1
f 9/8/2 12/9/2 10/10/2
f 11/11/1 14/12/1 12/9/1
f 15/13/3 10/10/3 8/14/3
f 17/15/4 9/8/4 15/13/4
f 3/1/1 17/15/1 5/4/1
f 1/16/1 19/2/1 2/17/1
f 20/18/1 18/3/1 1/16/1
f 40/2/5 24/1/5 39/3/5
f 25/5/5 26/4/5 24/1/5
f 27/7/5 28/6/5 26/4/5
f 30/8/5 33/9/5 32/11/5
f 32/11/5 35/12/5 34/19/5
f 29/14/6 30/8/6 36/13/6
f 30/8/7 38/15/7 36/13/7
f 38/15/5 24/1/5 26/4/5
f 22/16/5 40/2/5 39/3/5
f 39/3/5 41/18/5 22/16/5
f 13/19/8 35/12/8 14/12/8
f 1/16/9 41/18/9 20/18/9
f 8/14/10 27/7/10 6/7/10
f 17/15/11 26/4/11 5/4/11
f 1/16/12 61/16/12 22/16/12
f 14/12/13 33/9/13 12/9/13
f 5/4/14 28/6/14 7/6/14
f 3/1/15 37/20/15 16/20/15
f 19/2/16 25/5/16 40/2/16
f 11/11/17 34/19/17 13/19/17
f 18/3/18 24/1/18 3/1/18
f 8/14/19 31/10/19 29/14/19
f 15/13/20 28/6/20 36/13/20
f 19/2/16 23/17/16 2/17/16
f 6/7/21 25/5/21 4/5/21
f 12/9/22 31/10/22 10/10/22
f 21/21/23 41/18/23 42/21/23
f 9/8/24 37/20/24 30/8/24
f 9/8/25 32/11/25 11/11/25
f 18/3/26 42/21/26 39/3/26
f 15/13/27 38/15/27 17/15/27
f 45/22/1 44/23/1 43/24/1
f 48/25/1 43/24/1 44/23/1
f 50/26/1 47/27/1 48/25/1
f 52/23/5 53/22/5 51/24/5
f 51/24/5 56/25/5 52/23/5
f 55/27/5 58/26/5 56/25/5
f 47/27/28 51/24/28 43/24/28
f 43/24/29 53/22/29 45/22/29
f 45/22/30 54/28/30 46/28/30
f 49/29/31 55/27/31 47/27/31
f 48/25/32 52/23/32 56/25/32
f 46/28/33 52/23/33 44/23/33
f 48/25/34 58/26/34 50/26/34
f 50/26/35 57/29/35 49/29/35
f 60/17/36 61/16/36 59/16/36
f 1/16/37 60/17/37 59/16/37
f 22/16/38 62/17/38 23/17/38
f 23/17/39 60/17/39 2/17/39
f 3/1/1 4/5/1 19/2/1
f 5/4/1 6/7/1 4/5/1
f 7/6/1 8/14/1 6/7/1
f 9/8/1 11/11/1 12/9/1
f 11/11/1 13/19/1 14/12/1
f 8/14/1 7/6/1 15/13/1
f 15/13/40 9/8/40 10/10/40
f 17/15/41 16/20/41 9/8/41
f 3/1/1 16/20/1 17/15/1
f 1/16/1 18/3/1 19/2/1
f 20/18/1 21/21/1 18/3/1
f 40/2/5 25/5/5 24/1/5
f 25/5/5 27/7/5 26/4/5
f 27/7/5 29/14/5 28/6/5
f 30/8/42 31/10/42 33/9/42
f 32/11/5 33/9/5 35/12/5
f 36/13/5 28/6/5 29/14/5
f 29/14/43 31/10/43 30/8/43
f 30/8/44 37/20/44 38/15/44
f 38/15/5 37/20/5 24/1/5
f 22/16/5 23/17/5 40/2/5
f 39/3/5 42/21/5 41/18/5
f 13/19/8 34/19/8 35/12/8
f 1/16/9 22/16/9 41/18/9
f 8/14/10 29/14/10 27/7/10
f 17/15/11 38/15/11 26/4/11
f 1/16/12 59/16/12 61/16/12
f 14/12/13 35/12/13 33/9/13
f 5/4/14 26/4/14 28/6/14
f 3/1/15 24/1/15 37/20/15
f 19/2/16 4/5/16 25/5/16
f 11/11/17 32/11/17 34/19/17
f 18/3/18 39/3/18 24/1/18
f 8/14/19 10/10/19 31/10/19
f 15/13/20 7/6/20 28/6/20
f 19/2/16 40/2/16 23/17/16
f 6/7/21 27/7/21 25/5/21
f 12/9/22 33/9/22 31/10/22
f 21/21/23 20/18/23 41/18/23
f 9/8/24 16/20/24 37/20/24
f 9/8/25 30/8/25 32/11/25
f 18/3/26 21/21/26 42/21/26
f 15/13/27 36/13/27 38/15/27
f 45/22/1 46/28/1 44/23/1
f 48/25/1 47/27/1 43/24/1
f 50/26/1 49/29/1 47/27/1
f 52/23/5 54/28/5 53/22/5
f 51/24/5 55/27/5 56/25/5
f 55/27/5 57/29/5 58/26/5
f 47/27/28 55/27/28 51/24/28
f 43/24/29 51/24/29 53/22/29
f 45/22/30 53/22/30 54/28/30
f 49/29/31 57/29/31 55/27/31
f 48/25/32 44/23/32 52/23/32
f 46/28/33 54/28/33 52/23/33
f 48/25/34 56/25/34 58/26/34
f 50/26/35 58/26/35 57/29/35
f 60/17/36 62/17/36 61/16/36
f 1/16/45 2/17/45 60/17/45
f 22/16/46 61/16/46 62/17/46
f 23/17/39 62/17/39 60/17/39
