# Blender 4.0.2
# www.blender.org
mtllib medkit.mtl
o Cube
v 0.000000 0.142928 0.003679
v 0.000000 0.113582 0.003679
v 0.032407 0.128255 0.003679
v -0.000000 0.128255 -0.047379
v -0.032407 0.128255 0.003679
v 0.000000 0.128255 0.054738
v 0.027163 0.128255 0.054738
v 0.032407 0.128255 0.051409
v -0.027163 0.128255 0.054738
v -0.032407 0.128255 0.051409
v -0.032407 0.128255 -0.044051
v -0.027163 0.128255 -0.047379
v 0.027163 0.128255 -0.047379
v 0.032407 0.128255 -0.044051
v 0.000000 0.117092 0.054738
v 0.000000 0.113582 0.051468
v 0.000000 0.142928 0.051467
v 0.000000 0.139418 0.054738
v -0.032407 0.117092 0.003679
v -0.027255 0.113582 0.003679
v -0.027255 0.142928 0.003679
v -0.032407 0.139418 0.003679
v -0.000000 0.113582 -0.044109
v -0.000000 0.117092 -0.047379
v -0.000000 0.139418 -0.047379
v -0.000000 0.142928 -0.044109
v 0.027255 0.113582 0.003679
v 0.032407 0.117092 0.003679
v 0.032407 0.139418 0.003679
v 0.027255 0.142928 0.003679
v 0.027255 0.113582 0.050054
v 0.032407 0.117092 0.051409
v 0.025029 0.113582 0.051467
v 0.027163 0.117092 0.054738
v 0.025029 0.142928 0.051467
v 0.027163 0.139418 0.054738
v 0.027255 0.142928 0.050054
v 0.032407 0.139418 0.051409
v -0.025029 0.113582 0.051468
v -0.027163 0.117092 0.054738
v -0.027255 0.113582 0.050054
v -0.032407 0.117092 0.051409
v -0.027255 0.142928 0.050054
v -0.032407 0.139418 0.051409
v -0.025029 0.142928 0.051468
v -0.027163 0.139418 0.054738
v 0.025029 0.113582 -0.044109
v 0.027163 0.117092 -0.047379
v 0.027255 0.113582 -0.042696
v 0.032407 0.117092 -0.044051
v 0.027255 0.142928 -0.042696
v 0.032407 0.139418 -0.044051
v 0.025029 0.142928 -0.044109
v 0.027163 0.139418 -0.047379
v -0.027255 0.113582 -0.042696
v -0.032407 0.117092 -0.044051
v -0.025029 0.113582 -0.044109
v -0.027163 0.117092 -0.047379
v -0.025029 0.142928 -0.044109
v -0.027163 0.139418 -0.047379
v -0.027255 0.142928 -0.042696
v -0.032407 0.139418 -0.044051
v -0.020533 0.146527 -0.038538
v -0.018856 0.146527 -0.039602
v 0.018856 0.146527 -0.039602
v 0.020533 0.146527 -0.038538
v -0.000000 0.146527 -0.039602
v 0.020533 0.146527 -0.003600
v -0.020533 0.146527 -0.003600
v -0.000000 0.146527 -0.003600
vn -0.8146 0.5800 -0.0000
vn -0.8374 -0.0000 -0.5465
vn -1.0000 -0.0000 -0.0000
vn -0.0000 0.4118 -0.9113
vn 0.2543 -0.0000 -0.9671
vn -0.0000 -0.0000 -1.0000
vn 0.8374 -0.0000 0.5465
vn 0.2285 -0.4384 0.8692
vn 0.6972 -0.5540 0.4550
vn -0.0000 0.4118 0.9113
vn -0.2543 -0.0000 0.9671
vn -0.0000 -0.0000 1.0000
vn -0.2285 0.4384 -0.8692
vn -0.2543 -0.0000 -0.9671
vn 0.2543 -0.0000 0.9671
vn -0.0000 -0.4118 0.9113
vn 1.0000 -0.0000 -0.0000
vn 0.8146 -0.5800 -0.0000
vn -0.0000 -0.9654 -0.2607
vn 0.1859 -0.9751 -0.1213
vn 0.1689 -0.9856 -0.0000
vn -0.1859 -0.9751 -0.1213
vn -0.0000 -1.0000 -0.0000
vn -0.0000 0.9654 0.2607
vn 0.1859 0.9751 0.1213
vn 0.2385 0.9665 0.0951
vn 0.2285 0.4384 0.8692
vn -0.6972 0.5540 0.4550
vn -0.8374 -0.0000 0.5465
vn -0.2285 -0.4384 0.8692
vn -0.0000 -0.4118 -0.9113
vn -0.2285 -0.4384 -0.8692
vn -0.8146 -0.5800 -0.0000
vn -0.6972 -0.5540 0.4550
vn 0.8146 0.5800 -0.0000
vn -0.6972 -0.5540 -0.4550
vn 0.2285 -0.4384 -0.8692
vn 0.1859 -0.9751 0.1213
vn 0.0754 -0.9550 0.2868
vn 0.4067 0.8700 -0.2787
vn 0.1299 0.9792 0.1557
vn -0.0000 0.9828 0.1846
vn -0.1299 0.9792 0.1557
vn -0.2385 0.9665 0.0951
vn 0.8374 -0.0000 -0.5465
vn 0.6972 -0.5540 -0.4550
vn 0.6972 0.5540 -0.4550
vn -0.2285 0.4384 0.8692
vn -0.6972 0.5540 -0.4550
vn 0.2285 0.4384 -0.8692
vn 0.6972 0.5540 0.4550
vn -0.1859 0.9751 0.1213
vn -0.0754 -0.9550 0.2868
vn -0.1859 -0.9751 0.1213
vn -0.0754 -0.9550 -0.2868
vn 0.0754 -0.9550 -0.2868
vn -0.0754 0.9550 0.2868
vn -0.4067 0.8700 -0.2787
vn 0.1596 0.7972 -0.5823
vn -0.0000 -0.9654 0.2607
vn 0.0754 0.9550 0.2868
vn -0.1689 -0.9856 -0.0000
vn -0.1596 0.7972 -0.5823
vn -0.0000 0.7364 -0.6765
vn 0.1622 0.9828 -0.0885
vn 0.0558 0.9674 -0.2470
vn -0.1622 0.9828 -0.0885
vn -0.0000 0.9721 -0.2344
vn -0.0558 0.9674 -0.2470
vt 0.634607 0.116446
vt 0.517756 0.066881
vt 0.634607 0.066881
vt 0.384607 0.116446
vt 0.279835 0.066881
vt 0.384607 0.066881
vt 0.017756 0.066881
vt 0.009607 0.017316
vt 0.017756 0.017316
vt 0.884607 0.116446
vt 0.779835 0.066881
vt 0.884607 0.066881
vt 0.489379 0.116446
vt 0.489379 0.066881
vt 0.989379 0.066881
vt 0.884607 0.017316
vt 0.989379 0.017316
vt 0.134607 0.066881
vt 0.134607 0.017316
vt 0.077158 0.367980
vt 0.084572 0.224957
vt 0.327928 0.224957
vt 0.084573 0.511002
vt 0.327928 0.367980
vt 0.580249 0.776189
vt 0.572834 0.919211
vt 0.329478 0.919211
vt 0.989379 0.116445
vt 0.751458 0.116446
vt 0.751458 0.066881
vt 0.779835 0.017316
vt 0.384607 0.017316
vt 0.489379 0.017316
vt 0.634607 0.017316
vt 0.751458 0.017316
vt 0.134607 0.116446
vt 0.517756 0.017316
vt 0.279835 0.017316
vt 0.571284 0.224957
vt 0.578699 0.236639
vt 0.086123 0.919211
vt 0.291282 0.883938
vt 0.329478 0.776189
vt 0.291282 0.668439
vt 0.329478 0.633166
vt 0.251458 0.066881
vt 0.251458 0.017316
vt 0.251458 0.116446
vt 0.779835 0.116446
vt 0.517756 0.116446
vt 0.279835 0.116446
vt 0.017756 0.116446
vt 0.009607 0.066881
vt 0.572834 0.633166
vt 0.597409 0.918728
vt 0.579942 0.946247
vt 0.578699 0.499320
vt 0.578392 0.538038
vt 0.571284 0.511002
vt 0.059997 0.510518
vt 0.077158 0.499320
vt 0.077158 0.236639
vt 0.077464 0.197921
vt 0.595859 0.225441
vt 0.580249 0.644849
vt 0.579942 0.606130
vt 0.597409 0.633650
vt 0.086123 0.633166
vt 0.061548 0.633650
vt 0.079015 0.606130
vt 0.061547 0.918728
vt 0.078708 0.907529
vt 0.595859 0.367979
vt 0.578699 0.367979
vt 0.327928 0.197921
vt 0.578392 0.197921
vt 0.580249 0.907529
vt 0.597409 0.776189
vt 0.329478 0.946247
vt 0.595859 0.510518
vt 0.327928 0.538038
vt 0.327928 0.511002
vt 0.329478 0.606130
vt 0.059997 0.367980
vt 0.059997 0.225441
vt 0.061547 0.776189
vt 0.077465 0.538038
vt 0.078708 0.644849
vt 0.078708 0.776189
vt 0.291282 0.776189
vt 0.107943 0.883938
vt 0.102357 0.875137
vt 0.107943 0.668439
vt 0.102357 0.776189
vt 0.102357 0.677240
vt 0.009607 0.116446
vt 0.079015 0.946247
s 1
usemtl Material.002
f 22/1/1 11/2/2 5/3/3
f 25/4/4 13/5/5 4/6/6
f 8/7/7 34/8/8 32/9/9
f 18/10/10 9/11/11 6/12/12
f 60/13/13 4/6/6 12/14/14
f 7/15/15 15/16/16 34/17/8
f 3/18/17 32/9/9 28/19/18
f 23/20/19 49/21/20 27/22/21
f 55/23/22 23/20/19 2/24/23
f 17/25/24 37/26/25 30/27/26
f 36/28/27 6/12/12 7/15/15
f 44/29/28 5/3/3 10/30/29
f 6/12/12 40/31/30 15/16/16
f 12/14/14 24/32/31 58/33/32
f 10/30/29 19/34/33 42/35/34
f 29/36/35 8/7/7 3/18/17
f 5/3/3 56/37/36 19/34/33
f 4/6/6 48/38/37 24/32/31
f 2/24/23 31/39/38 33/40/39
f 51/41/40 68/42/41 30/27/26
f 1/43/42 69/44/43 21/45/44
f 14/46/45 28/19/18 50/47/46
f 52/48/47 3/18/17 14/46/45
f 42/35/34 9/11/11 10/30/29
f 10/30/29 46/49/48 44/29/28
f 12/14/14 62/50/49 60/13/13
f 14/46/45 54/51/50 52/48/47
f 38/52/51 7/53/15 8/7/7
f 50/47/46 13/5/5 14/46/45
f 58/33/32 11/2/2 12/14/14
f 43/54/52 17/25/24 1/43/42
f 37/26/25 36/55/27 38/56/51
f 39/57/53 42/58/34 41/59/54
f 55/23/22 58/60/32 57/61/55
f 47/62/56 50/63/46 49/21/20
f 31/39/38 34/64/8 33/40/39
f 45/65/57 44/66/28 46/67/48
f 61/68/58 60/69/13 62/70/49
f 51/41/40 54/71/50 53/72/59
f 33/40/39 15/73/16 16/74/60
f 31/39/38 28/75/18 32/76/9
f 35/77/61 18/78/10 36/55/27
f 37/26/25 29/79/35 30/27/26
f 39/57/53 15/73/16 40/80/30
f 41/59/54 19/81/33 20/82/62
f 22/83/1 43/54/52 21/45/44
f 18/78/10 45/65/57 46/67/48
f 47/62/56 24/84/31 48/85/37
f 49/21/20 28/75/18 27/22/21
f 25/86/4 53/72/59 54/71/50
f 29/79/35 51/41/40 30/27/26
f 55/23/22 19/81/33 56/87/36
f 57/61/55 24/84/31 23/20/19
f 25/86/4 59/88/63 26/89/64
f 22/83/1 61/68/58 62/70/49
f 41/59/54 2/24/23 16/74/60
f 70/90/42 66/91/65 65/92/66
f 63/93/67 70/90/42 67/94/68
f 26/89/64 65/92/66 53/72/59
f 51/41/40 65/92/66 66/91/65
f 1/43/42 68/42/41 70/90/42
f 61/68/58 69/44/43 63/93/67
f 26/89/64 64/95/69 67/94/68
f 61/68/58 64/95/69 59/88/63
f 22/1/1 62/50/49 11/2/2
f 25/4/4 54/51/50 13/5/5
f 8/7/7 7/53/15 34/8/8
f 18/10/10 46/49/48 9/11/11
f 60/13/13 25/4/4 4/6/6
f 7/15/15 6/12/12 15/16/16
f 3/18/17 8/7/7 32/9/9
f 27/22/21 2/24/23 23/20/19
f 23/20/19 47/62/56 49/21/20
f 2/24/23 20/82/62 55/23/22
f 55/23/22 57/61/55 23/20/19
f 30/27/26 1/43/42 17/25/24
f 17/25/24 35/77/61 37/26/25
f 36/28/27 18/10/10 6/12/12
f 44/29/28 22/1/1 5/3/3
f 6/12/12 9/11/11 40/31/30
f 12/14/14 4/6/6 24/32/31
f 10/30/29 5/3/3 19/34/33
f 29/36/35 38/52/51 8/7/7
f 5/3/3 11/2/2 56/37/36
f 4/6/6 13/5/5 48/38/37
f 33/40/39 16/74/60 2/24/23
f 2/24/23 27/22/21 31/39/38
f 51/41/40 66/91/65 68/42/41
f 1/43/42 70/90/42 69/44/43
f 14/46/45 3/18/17 28/19/18
f 52/48/47 29/36/35 3/18/17
f 42/35/34 40/31/30 9/11/11
f 10/30/29 9/11/11 46/49/48
f 12/14/14 11/2/2 62/50/49
f 14/46/45 13/5/5 54/51/50
f 38/52/51 36/96/27 7/53/15
f 50/47/46 48/38/37 13/5/5
f 58/33/32 56/37/36 11/2/2
f 1/43/42 21/45/44 43/54/52
f 43/54/52 45/65/57 17/25/24
f 37/26/25 35/77/61 36/55/27
f 39/57/53 40/80/30 42/58/34
f 55/23/22 56/87/36 58/60/32
f 47/62/56 48/85/37 50/63/46
f 31/39/38 32/76/9 34/64/8
f 45/65/57 43/54/52 44/66/28
f 61/68/58 59/88/63 60/69/13
f 51/41/40 52/97/47 54/71/50
f 33/40/39 34/64/8 15/73/16
f 31/39/38 27/22/21 28/75/18
f 35/77/61 17/25/24 18/78/10
f 37/26/25 38/56/51 29/79/35
f 39/57/53 16/74/60 15/73/16
f 41/59/54 42/58/34 19/81/33
f 22/83/1 44/66/28 43/54/52
f 18/78/10 17/25/24 45/65/57
f 47/62/56 23/20/19 24/84/31
f 49/21/20 50/63/46 28/75/18
f 25/86/4 26/89/64 53/72/59
f 29/79/35 52/97/47 51/41/40
f 55/23/22 20/82/62 19/81/33
f 57/61/55 58/60/32 24/84/31
f 25/86/4 60/69/13 59/88/63
f 22/83/1 21/45/44 61/68/58
f 16/74/60 39/57/53 41/59/54
f 41/59/54 20/82/62 2/24/23
f 65/92/66 67/94/68 70/90/42
f 70/90/42 68/42/41 66/91/65
f 67/94/68 64/95/69 63/93/67
f 63/93/67 69/44/43 70/90/42
f 26/89/64 67/94/68 65/92/66
f 51/41/40 53/72/59 65/92/66
f 1/43/42 30/27/26 68/42/41
f 61/68/58 21/45/44 69/44/43
f 26/89/64 59/88/63 64/95/69
f 61/68/58 63/93/67 64/95/69
